<?xml version="1.0" encoding="UTF-8" standalone="no"?>
<!-- Generator: Adobe Illustrator 16.0.0, SVG Export Plug-In . SVG Version: 6.00 Build 0)  -->

<svg
   xmlns:dc="http://purl.org/dc/elements/1.1/"
   xmlns:cc="http://creativecommons.org/ns#"
   xmlns:rdf="http://www.w3.org/1999/02/22-rdf-syntax-ns#"
   xmlns:svg="http://www.w3.org/2000/svg"
   xmlns="http://www.w3.org/2000/svg"
   xmlns:sodipodi="http://sodipodi.sourceforge.net/DTD/sodipodi-0.dtd"
   xmlns:inkscape="http://www.inkscape.org/namespaces/inkscape"
   version="1.1"
   id="Capa_1"
   x="0px"
   y="0px"
   width="125"
   height="125"
   viewBox="0 0 23.996827 23.997071"
   xml:space="preserve"
   inkscape:version="0.91 r13725"
   sodipodi:docname="estudio.svg"><metadata
     id="metadata47"><rdf:RDF><cc:Work
         rdf:about=""><dc:format>image/svg+xml</dc:format><dc:type
           rdf:resource="http://purl.org/dc/dcmitype/StillImage" /><dc:title></dc:title></cc:Work></rdf:RDF></metadata><defs
     id="defs45" /><sodipodi:namedview
     pagecolor="#ffffff"
     bordercolor="#666666"
     borderopacity="1"
     objecttolerance="10"
     gridtolerance="10"
     guidetolerance="10"
     inkscape:pageopacity="0"
     inkscape:pageshadow="2"
     inkscape:window-width="1280"
     inkscape:window-height="691"
     id="namedview43"
     showgrid="false"
     inkscape:zoom="1.51"
     inkscape:cx="47.846939"
     inkscape:cy="140.94534"
     inkscape:window-x="0"
     inkscape:window-y="0"
     inkscape:window-maximized="1"
     inkscape:current-layer="Capa_1" /><g
     id="g3"
     style="fill:#f8f8f8;fill-opacity:1"
     transform="matrix(0.23362233,0,0,0.23362233,0.5911138,0.61440887)"><g
       id="g5"
       style="fill:#f8f8f8;fill-opacity:1"><path
         d="m 75.715,68.998 c 0,0 4.504,-1.067 4.504,-3.142 0,-2.08 0,-12.457 0,-15.718 0,-2.95 -3.651,-4.167 -4.35,-4.447 l 0,-0.07 -66.917,0 0,1.095 0,0.955 0,1.417 44.102,0 c 1.581,0 2.915,1.047 3.378,2.478 l -44.213,0 0,2.375 44.397,0 0,2.074 -44.397,0 0,2.375 44.397,0 0,1.957 -44.397,0 0,2.375 44.397,0 0,2.074 -44.397,0 0,2.378 43.979,0 c -0.596,1.133 -1.772,1.924 -3.142,1.924 l -44.104,0 0,0.94 0,1.431 0,0.5 44.091,0 c 0.096,0 0.205,0 0.322,0 1.361,0 4.048,0.01 6.063,-0.739 l 16.287,-2.232 z"
         id="path7"
         style="fill:#f8f8f8;fill-opacity:1"
         inkscape:connector-curvature="0" /><path
         d="m 53.365,71.961 -30.938,0 0,0.064 c -0.702,0.274 -4.353,1.496 -4.353,4.445 0,3.262 0,13.641 0,15.715 0,2.074 4.503,3.142 4.503,3.142 l 16.281,2.231 c 2.018,0.739 4.709,0.732 6.065,0.732 0.118,0 0.221,-0.004 0.322,-0.004 l 44.093,0 0,-0.489 0,-1.438 0,-0.938 -44.103,0 c -1.37,0 -2.548,-0.79 -3.143,-1.923 l 43.982,0 0,-2.368 -44.396,0 0,-2.081 44.396,0 0,-2.368 -44.396,0 0,-1.961 44.396,0 0,-2.375 -44.396,0 0,-2.075 44.396,0 0,-2.368 -44.213,0 c 0.462,-1.438 1.797,-2.478 3.377,-2.478 l 44.1,0 0,-1.424 0,-0.951 0,-1.095 -35.973,0 0,0.007 z"
         id="path9"
         style="fill:#f8f8f8;fill-opacity:1"
         inkscape:connector-curvature="0" /><path
         d="m 47.229,45.085 c 0.338,0.021 4.617,-0.659 5.438,0.036 10.8,0 17.356,-12.857 17.356,-22.292 0.668,-10.47 -9.862,-13.911 -18.821,-12.041 -0.13,-0.199 -0.353,-0.539 -0.619,-1.008 1.83,0.578 3.397,0.592 4.883,0.438 1.499,-0.189 2.896,-0.61 4.186,-1.23 1.301,-0.625 2.495,-1.451 3.576,-2.524 1.078,-1.093 2.061,-2.365 2.751,-4.24 C 64.09,1.598 62.489,1.576 60.969,1.74 59.47,1.927 58.08,2.351 56.787,2.977 55.493,3.609 54.303,4.438 53.211,5.504 52.164,6.577 51.195,7.824 50.506,9.636 49.515,7.866 47.924,4.478 47.215,0 l -2.173,0.349 c 0.729,4.693 2.363,8.249 3.45,10.226 -8.67,-1.332 -18.234,2.257 -17.607,12.254 0,9.135 6.014,21.478 16.344,22.256 z"
         id="path11"
         style="fill:#f8f8f8;fill-opacity:1"
         inkscape:connector-curvature="0" /></g></g><g
     id="g13"
     transform="translate(0,-74.294932)" /><g
     id="g15"
     transform="translate(0,-74.294932)" /><g
     id="g17"
     transform="translate(0,-74.294932)" /><g
     id="g19"
     transform="translate(0,-74.294932)" /><g
     id="g21"
     transform="translate(0,-74.294932)" /><g
     id="g23"
     transform="translate(0,-74.294932)" /><g
     id="g25"
     transform="translate(0,-74.294932)" /><g
     id="g27"
     transform="translate(0,-74.294932)" /><g
     id="g29"
     transform="translate(0,-74.294932)" /><g
     id="g31"
     transform="translate(0,-74.294932)" /><g
     id="g33"
     transform="translate(0,-74.294932)" /><g
     id="g35"
     transform="translate(0,-74.294932)" /><g
     id="g37"
     transform="translate(0,-74.294932)" /><g
     id="g39"
     transform="translate(0,-74.294932)" /><g
     id="g41"
     transform="translate(0,-74.294932)" /></svg>