<?xml version="1.0" encoding="UTF-8" standalone="no"?>
<!-- Generator: Adobe Illustrator 16.0.0, SVG Export Plug-In . SVG Version: 6.00 Build 0)  -->

<svg
   xmlns:dc="http://purl.org/dc/elements/1.1/"
   xmlns:cc="http://creativecommons.org/ns#"
   xmlns:rdf="http://www.w3.org/1999/02/22-rdf-syntax-ns#"
   xmlns:svg="http://www.w3.org/2000/svg"
   xmlns="http://www.w3.org/2000/svg"
   xmlns:sodipodi="http://sodipodi.sourceforge.net/DTD/sodipodi-0.dtd"
   xmlns:inkscape="http://www.inkscape.org/namespaces/inkscape"
   version="1.1"
   id="Capa_1"
   x="0px"
   y="0px"
   width="125"
   height="125"
   viewBox="0 0 7.8076172 7.8076172"
   xml:space="preserve"
   inkscape:version="0.91 r13725"
   sodipodi:docname="woman-with-kids.svg"><metadata
     id="metadata45"><rdf:RDF><cc:Work
         rdf:about=""><dc:format>image/svg+xml</dc:format><dc:type
           rdf:resource="http://purl.org/dc/dcmitype/StillImage" /><dc:title></dc:title></cc:Work></rdf:RDF></metadata><defs
     id="defs43" /><sodipodi:namedview
     pagecolor="#ffffff"
     bordercolor="#666666"
     borderopacity="1"
     objecttolerance="10"
     gridtolerance="10"
     guidetolerance="10"
     inkscape:pageopacity="0"
     inkscape:pageshadow="2"
     inkscape:window-width="706"
     inkscape:window-height="480"
     id="namedview41"
     showgrid="false"
     inkscape:zoom="0.4609375"
     inkscape:cx="256"
     inkscape:cy="256"
     inkscape:window-x="0"
     inkscape:window-y="0"
     inkscape:window-maximized="0"
     inkscape:current-layer="Capa_1" /><g
     id="g3"
     style="fill:#f8f8f8;fill-opacity:1"
     transform="matrix(0.24765041,0,0,0.24765041,0,-0.06230717)"><g
       id="g5"
       style="fill:#f8f8f8;fill-opacity:1"><path
         d="m 27.23,19.923 c 1.399,0 2.535,-1.135 2.535,-2.539 0,-0.874 0.308,-1.676 -0.369,-2.13 -0.402,-0.275 -2.184,-0.406 -2.709,-0.406 -0.625,0 -1.438,0.51 -1.881,0.885 -0.55,0.465 -0.115,0.874 -0.115,1.65 0,1.406 1.135,2.54 2.539,2.54 z m -1.768,-2.787 c 0.465,-0.085 0.783,0.068 0.783,0.068 l 0.776,-0.379 c 0,0 -0.396,0.574 -0.039,0.379 0.791,-0.269 1.681,-0.155 2.131,-0.066 0.017,0.1 0.029,0.2 0.029,0.305 0,1.045 -0.828,1.891 -1.856,1.891 -1.024,0 -1.854,-0.846 -1.854,-1.891 0,-0.105 0.013,-0.205 0.03,-0.307 z"
         id="path7"
         style="fill:#f8f8f8;fill-opacity:1"
         inkscape:connector-curvature="0" /><path
         d="m 31.964,23.964 -2.948,-3.625 -3.283,0 -1.701,-1.48 c 0.003,-0.009 0.007,-0.017 0.01,-0.025 L 23.073,18 c -0.003,0.004 -0.009,0.008 -0.013,0.013 l -1.174,-1.021 0.327,-0.131 -2.897,-8.343 1.029,0 0.693,0 -0.325,-0.614 C 20.705,7.889 19.976,6.493 19.691,5.168 c 0,-0.019 0.006,-0.034 0.006,-0.054 0,-0.257 -0.04,-0.506 -0.098,-0.748 C 19.595,4.291 19.589,4.218 19.586,4.139 19.544,2.925 19.485,1.261 16.587,1.261 c -1.128,0 -1.983,0.293 -2.545,0.872 -0.793,0.813 -0.861,2.028 -0.834,2.995 0.044,1.557 -0.901,2.69 -0.909,2.703 l -0.584,0.689 1.692,0 -2.881,8.351 L 10.849,17 9.706,17.994 C 9.406,17.629 8.917,17.328 8.205,17.197 8.186,16.854 8.119,16.523 7.995,16.22 7.837,15.307 7.314,14.061 5.51,14.019 3.195,13.963 2.395,15.821 2.302,16.715 2.273,16.849 2.265,16.989 2.255,17.129 0.51,17.435 -0.722,20.296 1.766,20.317 1.665,19.364 2.084,18.474 2.324,18.053 c 0.319,1.311 1.496,2.292 2.902,2.292 1.467,0 2.685,-1.063 2.94,-2.459 0.148,0.165 0.388,0.488 0.559,0.963 l -1.806,1.571 -1.057,0 -1.258,0 -1.166,0 -3.438,4.029 0,0.685 0.112,-0.028 0.64,0.159 2.826,-3.097 0.102,1.287 -1.888,3.685 1.916,0 0,3.204 -0.324,0 0,0.375 1.476,0 0,-0.375 0,-3.204 0.554,0 0,3.204 0.003,0 0,0.375 1.477,0 0,-0.375 -0.326,0 0,-3.204 2.472,0 -2.143,-3.686 0.119,-1.563 1.878,-1.808 c -0.004,0.078 0.002,0.15 -0.008,0.234 0.779,-0.021 1.239,-0.676 1.199,-1.386 l 1.638,-1.58 -0.358,-0.146 0.763,0.305 1.797,-4.93 0.18,2.285 -2.903,8.038 3.351,0 0,6.998 -0.443,0 0,0.816 2.003,0 0,-0.816 0,-6.998 0.75,0 0,6.998 0,0.816 2.004,0 0,-0.816 -0.439,0 0,-6.998 2.6,0 -2.562,-8.038 0.14,-2.813 1.988,5.458 0.274,-0.109 0.157,-0.063 4.25,4.812 0.123,4.82 0.504,0 0,3.163 -0.319,0 0,0.371 1.459,0 0,-0.371 0,-3.163 0.546,0 0,3.163 0,0.371 1.458,0 0,-0.371 -0.319,0 0,-3.163 0.611,0 0,-4.083 2.012,2.065 0.631,-0.157 0,-0.849 -0.017,0.018 z M 5.227,19.498 c -1.184,0 -2.147,-0.963 -2.147,-2.149 0,-0.022 0.006,-0.043 0.006,-0.067 l 0.046,-0.037 c 0,0 1.526,0.177 2.011,0.045 l 0,-1.142 c 0,0 0.764,1.449 1.203,1.296 0,-0.834 0.254,-0.922 0.254,-0.922 0,0 0.326,0.777 0.769,0.905 -0.045,1.147 -0.985,2.071 -2.142,2.071 z M 17.219,7.336 17.215,8.207 17.214,8.356 16.366,9.642 15.513,8.435 l 0,-0.327 0,-0.436 0,-0.46 C 14.733,6.833 14.19,6.04 14.19,5.115 c 0,-0.389 0.104,-0.751 0.273,-1.074 l 1.233,-0.117 2.976,0.274 c 0.12,0.281 0.188,0.592 0.188,0.917 0.001,1.046 -0.694,1.923 -1.641,2.221 z"
         id="path9"
         style="fill:#f8f8f8;fill-opacity:1"
         inkscape:connector-curvature="0" /></g></g><g
     id="g11"
     transform="translate(0,-24.172383)" /><g
     id="g13"
     transform="translate(0,-24.172383)" /><g
     id="g15"
     transform="translate(0,-24.172383)" /><g
     id="g17"
     transform="translate(0,-24.172383)" /><g
     id="g19"
     transform="translate(0,-24.172383)" /><g
     id="g21"
     transform="translate(0,-24.172383)" /><g
     id="g23"
     transform="translate(0,-24.172383)" /><g
     id="g25"
     transform="translate(0,-24.172383)" /><g
     id="g27"
     transform="translate(0,-24.172383)" /><g
     id="g29"
     transform="translate(0,-24.172383)" /><g
     id="g31"
     transform="translate(0,-24.172383)" /><g
     id="g33"
     transform="translate(0,-24.172383)" /><g
     id="g35"
     transform="translate(0,-24.172383)" /><g
     id="g37"
     transform="translate(0,-24.172383)" /><g
     id="g39"
     transform="translate(0,-24.172383)" /></svg>