<?xml version="1.0" encoding="UTF-8" standalone="no"?>
<!-- Generator: Adobe Illustrator 18.1.1, SVG Export Plug-In . SVG Version: 6.00 Build 0)  -->

<svg
   xmlns:dc="http://purl.org/dc/elements/1.1/"
   xmlns:cc="http://creativecommons.org/ns#"
   xmlns:rdf="http://www.w3.org/1999/02/22-rdf-syntax-ns#"
   xmlns:svg="http://www.w3.org/2000/svg"
   xmlns="http://www.w3.org/2000/svg"
   xmlns:sodipodi="http://sodipodi.sourceforge.net/DTD/sodipodi-0.dtd"
   xmlns:inkscape="http://www.inkscape.org/namespaces/inkscape"
   version="1.1"
   id="Capa_1"
   x="0px"
   y="0px"
   viewBox="0 0 125 125"
   xml:space="preserve"
   inkscape:version="0.91 r13725"
   sodipodi:docname="mental.svg"
   width="125"
   height="125"><metadata
     id="metadata47"><rdf:RDF><cc:Work
         rdf:about=""><dc:format>image/svg+xml</dc:format><dc:type
           rdf:resource="http://purl.org/dc/dcmitype/StillImage" /><dc:title></dc:title></cc:Work></rdf:RDF></metadata><defs
     id="defs45" /><sodipodi:namedview
     pagecolor="#ffffff"
     bordercolor="#666666"
     borderopacity="1"
     objecttolerance="10"
     gridtolerance="10"
     guidetolerance="10"
     inkscape:pageopacity="0"
     inkscape:pageshadow="2"
     inkscape:window-width="768"
     inkscape:window-height="573"
     id="namedview43"
     showgrid="false"
     inkscape:zoom="0.38562092"
     inkscape:cx="306"
     inkscape:cy="306"
     inkscape:window-x="0"
     inkscape:window-y="0"
     inkscape:window-maximized="0"
     inkscape:current-layer="Capa_1" /><g
     id="g3"
     transform="matrix(0.18644077,0,0,0.18644077,5.511403,8.898248)"
     style="fill:#f8f8f8;fill-opacity:1"><g
       id="g5"
       style="fill:#f8f8f8;fill-opacity:1"><path
         d="m 265.267,193.788 c 29.384,0 53.29,23.905 53.29,53.29 0,29.384 -23.905,53.289 -53.29,53.289 -29.385,0 -53.29,-23.905 -53.29,-53.289 0,-29.384 23.905,-53.29 53.29,-53.29 z"
         id="path7"
         inkscape:connector-curvature="0"
         style="fill:#f8f8f8;fill-opacity:1" /><path
         d="m 67.687,502.479 c 2.347,27.861 27.491,39.706 69.335,32.992 39.884,-6.403 59.89,11.861 65.018,33.857 0,0 1.488,11.778 2.392,25.149 0.666,9.857 8.833,17.523 18.713,17.523 l 245.481,0 c 10.357,0 18.753,-8.396 18.753,-18.753 l 0,-67.884 c 0,-33.429 3.324,-83.053 27.298,-109.446 C 581.11,342.78 617.69,246.881 580.59,150.285 537.435,37.92 416.956,-12.325 302.562,2.554 261.058,7.952 220.622,22.222 185.722,45.471 122.036,87.896 76.575,158.722 69.928,235.523 c -1.95,22.526 8.749,49.804 3.363,71.242 -1.085,4.339 -6.971,24.576 -51.079,68.055 -10.552,10.402 -5.448,28.354 8.998,31.647 19.644,4.479 33.171,7.156 35.203,8.317 0,0 0.5,78.505 1.274,87.695 z m 301.543,-322.612 3.024,-7.339 c -2.495,-4.44 -4.49,-9.197 -5.902,-14.197 l -7.302,-3.04 c -2.55,-1.061 -4.21,-3.552 -4.21,-6.314 l 0,-8.4 0,-8.4 c 0,-2.762 1.661,-5.252 4.21,-6.314 l 7.302,-3.041 c 1.411,-5 3.406,-9.757 5.901,-14.196 l -3.024,-7.339 c -1.052,-2.553 -0.466,-5.488 1.487,-7.441 l 5.94,-5.94 5.94,-5.94 c 1.953,-1.953 4.888,-2.54 7.442,-1.487 l 7.339,3.024 c 4.44,-2.495 9.197,-4.49 14.197,-5.902 l 3.041,-7.303 c 1.061,-2.549 3.552,-4.21 6.314,-4.21 l 8.4,0 8.4,0 c 2.762,0 5.252,1.661 6.314,4.21 l 3.041,7.303 c 5,1.411 9.757,3.406 14.197,5.902 l 7.339,-3.024 c 2.554,-1.052 5.489,-0.466 7.442,1.487 l 5.94,5.94 5.94,5.94 c 1.953,1.953 2.54,4.888 1.487,7.441 l -3.024,7.339 c 2.495,4.44 4.49,9.197 5.901,14.196 l 7.302,3.041 c 2.55,1.061 4.21,3.552 4.21,6.314 l 0,8.4 0,8.4 c 0,2.761 -1.661,5.252 -4.21,6.314 l -7.302,3.041 c -1.411,5 -3.406,9.757 -5.902,14.196 l 3.024,7.339 c 1.052,2.553 0.466,5.489 -1.487,7.441 l -5.94,5.94 -5.94,5.939 c -1.953,1.953 -4.888,2.54 -7.442,1.487 l -7.339,-3.024 c -4.44,2.495 -9.197,4.49 -14.197,5.901 l -3.041,7.303 c -1.061,2.549 -3.552,4.21 -6.314,4.21 l -8.4,0 -8.4,0 c -2.762,0 -5.252,-1.661 -6.314,-4.21 l -3.041,-7.302 c -5,-1.411 -9.757,-3.406 -14.197,-5.902 l -7.339,3.024 c -2.554,1.052 -5.489,0.466 -7.442,-1.487 l -5.94,-5.939 -5.94,-5.94 c -1.951,-1.952 -2.537,-4.888 -1.485,-7.441 z m -206.088,55.694 c 0,-3.786 2.277,-7.201 5.772,-8.656 l 10.011,-4.168 c 1.935,-6.855 4.67,-13.377 8.091,-19.464 l -4.146,-10.062 c -1.443,-3.501 -0.638,-7.526 2.039,-10.202 l 8.143,-8.144 8.143,-8.143 c 2.677,-2.677 6.702,-3.482 10.203,-2.039 l 10.062,4.146 c 6.087,-3.421 12.608,-6.156 19.463,-8.091 l 4.168,-10.012 c 1.455,-3.495 4.87,-5.772 8.657,-5.772 l 11.516,0 11.517,0 c 3.786,0 7.201,2.277 8.656,5.772 l 4.169,10.012 c 6.855,1.935 13.376,4.67 19.463,8.091 l 10.062,-4.146 c 3.501,-1.443 7.526,-0.638 10.203,2.039 l 8.143,8.143 8.144,8.144 c 2.677,2.677 3.481,6.702 2.039,10.202 l -4.146,10.062 c 3.421,6.087 6.156,12.608 8.091,19.464 l 10.011,4.168 c 3.496,1.455 5.772,4.87 5.772,8.656 l 0,11.516 0,11.517 c 0,3.786 -2.277,7.201 -5.772,8.656 l -10.011,4.168 c -1.935,6.855 -4.67,13.377 -8.091,19.464 l 4.146,10.061 c 1.443,3.501 0.638,7.526 -2.039,10.203 l -8.143,8.143 -8.143,8.143 c -2.677,2.677 -6.702,3.481 -10.202,2.039 l -10.062,-4.146 c -6.087,3.421 -12.608,6.156 -19.464,8.091 l -4.169,10.012 c -1.455,3.496 -4.87,5.772 -8.656,5.772 l -11.517,0 -11.515,0 c -3.786,0 -7.201,-2.277 -8.656,-5.772 l -4.168,-10.011 c -6.855,-1.935 -13.377,-4.67 -19.464,-8.091 l -10.061,4.146 c -3.501,1.443 -7.526,0.638 -10.203,-2.039 l -8.143,-8.143 -8.143,-8.143 c -2.677,-2.677 -3.482,-6.702 -2.039,-10.203 l 4.146,-10.061 c -3.421,-6.087 -6.156,-12.609 -8.091,-19.464 l -10.011,-4.168 c -3.495,-1.455 -5.772,-4.87 -5.772,-8.656 l 0,-11.516 -0.003,-11.518 0,0 z"
         id="path9"
         inkscape:connector-curvature="0"
         style="fill:#f8f8f8;fill-opacity:1" /><path
         d="m 429.328,101.709 c 21.432,0 38.869,17.436 38.869,38.869 0,21.432 -17.436,38.868 -38.869,38.868 -21.433,0 -38.869,-17.436 -38.869,-38.868 0,-21.432 17.436,-38.869 38.869,-38.869 z"
         id="path11"
         inkscape:connector-curvature="0"
         style="fill:#f8f8f8;fill-opacity:1" /></g></g><g
     id="g13"
     transform="translate(0,-487)" /><g
     id="g15"
     transform="translate(0,-487)" /><g
     id="g17"
     transform="translate(0,-487)" /><g
     id="g19"
     transform="translate(0,-487)" /><g
     id="g21"
     transform="translate(0,-487)" /><g
     id="g23"
     transform="translate(0,-487)" /><g
     id="g25"
     transform="translate(0,-487)" /><g
     id="g27"
     transform="translate(0,-487)" /><g
     id="g29"
     transform="translate(0,-487)" /><g
     id="g31"
     transform="translate(0,-487)" /><g
     id="g33"
     transform="translate(0,-487)" /><g
     id="g35"
     transform="translate(0,-487)" /><g
     id="g37"
     transform="translate(0,-487)" /><g
     id="g39"
     transform="translate(0,-487)" /><g
     id="g41"
     transform="translate(0,-487)" /></svg>