<?xml version="1.0" encoding="UTF-8" standalone="no"?>
<!-- Generator: Adobe Illustrator 18.1.1, SVG Export Plug-In . SVG Version: 6.00 Build 0)  -->

<svg
   xmlns:dc="http://purl.org/dc/elements/1.1/"
   xmlns:cc="http://creativecommons.org/ns#"
   xmlns:rdf="http://www.w3.org/1999/02/22-rdf-syntax-ns#"
   xmlns:svg="http://www.w3.org/2000/svg"
   xmlns="http://www.w3.org/2000/svg"
   xmlns:sodipodi="http://sodipodi.sourceforge.net/DTD/sodipodi-0.dtd"
   xmlns:inkscape="http://www.inkscape.org/namespaces/inkscape"
   version="1.1"
   id="Capa_1"
   x="0px"
   y="0px"
   viewBox="0 0 79.467285 79.467285"
   xml:space="preserve"
   width="125"
   height="125"
   inkscape:version="0.91 r13725"
   sodipodi:docname="progreso.svg"><metadata
     id="metadata56"><rdf:RDF><cc:Work
         rdf:about=""><dc:format>image/svg+xml</dc:format><dc:type
           rdf:resource="http://purl.org/dc/dcmitype/StillImage" /><dc:title></dc:title></cc:Work></rdf:RDF></metadata><defs
     id="defs54" /><sodipodi:namedview
     pagecolor="#ffffff"
     bordercolor="#666666"
     borderopacity="1"
     objecttolerance="10"
     gridtolerance="10"
     guidetolerance="10"
     inkscape:pageopacity="0"
     inkscape:pageshadow="2"
     inkscape:window-width="1280"
     inkscape:window-height="691"
     id="namedview52"
     showgrid="false"
     inkscape:zoom="0.4609375"
     inkscape:cx="256"
     inkscape:cy="256"
     inkscape:window-x="0"
     inkscape:window-y="0"
     inkscape:window-maximized="1"
     inkscape:current-layer="Capa_1" /><g
     id="g3"
     style="fill:#f8f8f8;fill-opacity:1"
     transform="matrix(0.23305202,0,0,0.23305202,1.2710953,-2.0655232)"><g
       id="Layer_5_45_"
       style="fill:#f8f8f8;fill-opacity:1"><g
         id="g6"
         style="fill:#f8f8f8;fill-opacity:1"><g
           id="g8"
           style="fill:#f8f8f8;fill-opacity:1"><path
             d="m 104.998,289.047 c 0,8.25 -6.75,15 -15,15 l -62,0 c -8.25,0 -15,-6.75 -15,-15 l 0,-68 c 0,-8.25 6.75,-15 15,-15 l 62,0 c 8.25,0 15,6.75 15,15 l 0,68 z"
             id="path10"
             style="fill:#f8f8f8;fill-opacity:1"
             inkscape:connector-curvature="0" /></g><g
           id="g12"
           style="fill:#f8f8f8;fill-opacity:1"><path
             d="m 215.248,289.047 c 0,8.25 -6.75,15 -15,15 l -62,0 c -8.25,0 -15,-6.75 -15,-15 l 0,-104 c 0,-8.25 6.75,-15 15,-15 l 62,0 c 8.25,0 15,6.75 15,15 l 0,104 z"
             id="path14"
             style="fill:#f8f8f8;fill-opacity:1"
             inkscape:connector-curvature="0" /></g><g
           id="g16"
           style="fill:#f8f8f8;fill-opacity:1"><path
             d="m 325.498,289.047 c 0,8.25 -6.75,15 -15,15 l -62,0 c -8.25,0 -15,-6.75 -15,-15 l 0,-144 c 0,-8.25 6.75,-15 15,-15 l 62,0 c 8.25,0 15,6.75 15,15 l 0,144 z"
             id="path18"
             style="fill:#f8f8f8;fill-opacity:1"
             inkscape:connector-curvature="0" /></g><path
           d="m 312.522,21.731 -67.375,16.392 c -5.346,1.294 -6.537,5.535 -2.648,9.424 l 14.377,14.041 c 1.207,1.376 -0.225,3.206 -1.361,3.981 -9.053,6.18 -23.42,15.248 -43.279,25.609 -108.115,56.407 -197.238,52.947 -198.578,52.886 -7.154,-0.363 -13.271,5.148 -13.641,12.314 -0.369,7.17 5.143,13.283 12.313,13.652 0.527,0.027 2.67,0.124 6.273,0.124 23.107,0 106.111,-3.987 205.66,-55.924 23.555,-12.289 39.881,-22.888 49.414,-29.598 1.348,-0.949 3.697,-2.585 5.865,-0.378 l 15.725,15.724 c 3.889,3.889 8.109,2.692 9.381,-2.659 l 15.285,-68.211 c 1.27,-5.352 -2.066,-8.671 -7.411,-7.377 z"
           id="path20"
           style="fill:#f8f8f8;fill-opacity:1"
           inkscape:connector-curvature="0" /></g></g></g><g
     id="g22"
     transform="translate(0,-246.0307)" /><g
     id="g24"
     transform="translate(0,-246.0307)" /><g
     id="g26"
     transform="translate(0,-246.0307)" /><g
     id="g28"
     transform="translate(0,-246.0307)" /><g
     id="g30"
     transform="translate(0,-246.0307)" /><g
     id="g32"
     transform="translate(0,-246.0307)" /><g
     id="g34"
     transform="translate(0,-246.0307)" /><g
     id="g36"
     transform="translate(0,-246.0307)" /><g
     id="g38"
     transform="translate(0,-246.0307)" /><g
     id="g40"
     transform="translate(0,-246.0307)" /><g
     id="g42"
     transform="translate(0,-246.0307)" /><g
     id="g44"
     transform="translate(0,-246.0307)" /><g
     id="g46"
     transform="translate(0,-246.0307)" /><g
     id="g48"
     transform="translate(0,-246.0307)" /><g
     id="g50"
     transform="translate(0,-246.0307)" /></svg>