<?xml version="1.0" encoding="UTF-8" standalone="no"?>
<!-- Generator: Adobe Illustrator 17.1.0, SVG Export Plug-In . SVG Version: 6.00 Build 0)  -->

<svg
   xmlns:dc="http://purl.org/dc/elements/1.1/"
   xmlns:cc="http://creativecommons.org/ns#"
   xmlns:rdf="http://www.w3.org/1999/02/22-rdf-syntax-ns#"
   xmlns:svg="http://www.w3.org/2000/svg"
   xmlns="http://www.w3.org/2000/svg"
   xmlns:sodipodi="http://sodipodi.sourceforge.net/DTD/sodipodi-0.dtd"
   xmlns:inkscape="http://www.inkscape.org/namespaces/inkscape"
   version="1.1"
   id="Capa_1"
   x="0px"
   y="0px"
   viewBox="0 0 45.328857 45.328857"
   xml:space="preserve"
   width="125"
   height="125"
   inkscape:version="0.91 r13725"
   sodipodi:docname="pruebas.svg"><metadata
     id="metadata39"><rdf:RDF><cc:Work
         rdf:about=""><dc:format>image/svg+xml</dc:format><dc:type
           rdf:resource="http://purl.org/dc/dcmitype/StillImage" /><dc:title></dc:title></cc:Work></rdf:RDF></metadata><defs
     id="defs37" /><sodipodi:namedview
     pagecolor="#ffffff"
     bordercolor="#666666"
     borderopacity="1"
     objecttolerance="10"
     gridtolerance="10"
     guidetolerance="10"
     inkscape:pageopacity="0"
     inkscape:pageshadow="2"
     inkscape:window-width="1280"
     inkscape:window-height="691"
     id="namedview35"
     showgrid="false"
     inkscape:zoom="3.6875"
     inkscape:cx="59.661017"
     inkscape:cy="60.745762"
     inkscape:window-x="0"
     inkscape:window-y="0"
     inkscape:window-maximized="1"
     inkscape:current-layer="Capa_1" /><path
     d="m 1.9193469,12.521958 7.9607278,0 c 0.6596123,0 1.1940863,-0.534712 1.1940863,-1.194085 l 0,-7.9604892 c 0,-0.6593738 -0.534474,-1.1940852 -1.1940863,-1.1940852 l -7.9607278,0 c -0.6596126,0 -1.19408515,0.5347114 -1.19408515,1.1940852 l 0,7.9604892 c 0,0.659373 0.53447255,1.194085 1.19408515,1.194085 z m 1.1940853,-7.9604889 5.5725573,0 0,5.5723179 -5.5725573,0 0,-5.5723179 z m 6.7666425,27.0398219 -7.9607278,0 c -0.6596126,0 -1.19408515,0.534711 -1.19408515,1.194086 l 0,7.960727 c 0,0.659374 0.53447255,1.194086 1.19408515,1.194086 l 7.9607278,0 c 0.6596123,0 1.1940863,-0.534712 1.1940863,-1.194086 l 0,-7.960727 c 0,-0.659375 -0.534474,-1.194086 -1.1940863,-1.194086 z m -1.1940852,7.960489 -5.5725573,0 0,-5.572556 5.5725573,0 0,5.572556 z M 13.900083,4.7742552 c 0,-0.6593739 0.534472,-1.1940854 1.194085,-1.1940854 l 28.777455,0 c 0.659613,0 1.194085,0.5347115 1.194085,1.1940854 0,0.6593739 -0.534472,1.1940853 -1.194085,1.1940853 l -28.777455,0 c -0.659613,0 -1.194085,-0.5344726 -1.194085,-1.1940853 z m 0,4.7276224 c 0,-0.6593739 0.534472,-1.1940853 1.194085,-1.1940853 l 17.911278,0 c 0.659614,0 1.194086,0.5347114 1.194086,1.1940853 0,0.6593734 -0.534472,1.1940854 -1.194086,1.1940854 l -17.911278,0 c -0.659613,0 -1.194085,-0.534712 -1.194085,-1.1940854 z m 0,10.1958164 c 0,-0.659373 0.534472,-1.194085 1.194085,-1.194085 l 23.045845,0 c 0.659613,0 1.194086,0.534712 1.194086,1.194085 0,0.659375 -0.534473,1.194086 -1.194086,1.194086 l -23.045845,0 c -0.659613,0 -1.194085,-0.534711 -1.194085,-1.194086 z m 0,4.727623 c 0,-0.659374 0.534472,-1.194086 1.194085,-1.194086 l 17.911278,0 c 0.659614,0 1.194086,0.534712 1.194086,1.194086 0,0.659373 -0.534472,1.194085 -1.194086,1.194085 l -17.911278,0 c -0.659613,0 -1.194085,-0.534472 -1.194085,-1.194085 z m 0,9.986373 c 0,-0.659373 0.534472,-1.194085 1.194085,-1.194085 l 23.045845,0 c 0.659613,0 1.194086,0.534712 1.194086,1.194085 0,0.659375 -0.534473,1.194086 -1.194086,1.194086 l -23.045845,0 c -0.659613,0 -1.194085,-0.534473 -1.194085,-1.194086 z m 31.165625,4.727623 c 0,0.659373 -0.534472,1.194085 -1.194085,1.194085 l -28.777455,0 c -0.659613,0 -1.194085,-0.534712 -1.194085,-1.194085 0,-0.659374 0.534472,-1.194086 1.194085,-1.194086 l 28.777455,0 c 0.659613,0 1.194085,0.534712 1.194085,1.194086 z M 13.16596,13.400328 c -0.555967,-0.354406 -1.29439,-0.190815 -1.648555,0.365389 l -1.9891079,3.121578 -7.6089502,0 c -0.6596126,0 -1.19408515,0.534711 -1.19408515,1.194086 l 0,7.960488 c 0,0.659373 0.53447255,1.194085 1.19408515,1.194085 l 7.9607278,0 c 0.6596123,0 1.1940863,-0.534712 1.1940863,-1.194085 l 0,-7.13657 2.457188,-3.856179 c 0.354166,-0.556204 0.190815,-1.294388 -0.365389,-1.648792 z M 8.0063161,19.275227 5.8273493,22.694848 3.496256,19.347588 c -0.018628,-0.02674 -0.041793,-0.04776 -0.062093,-0.07236 l 4.5721526,0 z m -4.8928839,3.701664 1.3027471,1.870892 -1.3027471,0 0,-1.870892 z m 5.5725573,1.870892 -1.3985128,0 1.3985128,-2.194729 0,2.194729 z"
     id="path3"
     style="fill:#f8f8f8;fill-opacity:1"
     inkscape:connector-curvature="0" /><g
     id="g5"
     transform="translate(0,-140.33816)" /><g
     id="g7"
     transform="translate(0,-140.33816)" /><g
     id="g9"
     transform="translate(0,-140.33816)" /><g
     id="g11"
     transform="translate(0,-140.33816)" /><g
     id="g13"
     transform="translate(0,-140.33816)" /><g
     id="g15"
     transform="translate(0,-140.33816)" /><g
     id="g17"
     transform="translate(0,-140.33816)" /><g
     id="g19"
     transform="translate(0,-140.33816)" /><g
     id="g21"
     transform="translate(0,-140.33816)" /><g
     id="g23"
     transform="translate(0,-140.33816)" /><g
     id="g25"
     transform="translate(0,-140.33816)" /><g
     id="g27"
     transform="translate(0,-140.33816)" /><g
     id="g29"
     transform="translate(0,-140.33816)" /><g
     id="g31"
     transform="translate(0,-140.33816)" /><g
     id="g33"
     transform="translate(0,-140.33816)" /></svg>